#!OML:ASF F:\VICON\USERDATA\INSTALL\rory3\rory3.ASF
:FULLY-SPECIFIED
:DEGREES
741
root -16.8143 17.9315 8.85765 178.914 68.6743 173.98
lowerback 4.19158 2.77091 -2.70141
upperback 2.62977 3.66302 -0.763746
thorax 0.238348 1.83479 0.580965
lowerneck -5.87254 0.742749 -3.95672
upperneck 22.4516 2.57828 -0.680327
head 7.85631 1.15145 0.703866
rclavicle -7.37118e-014 7.10655e-015
rhumerus -32.4731 -2.41853 -81.4581
rradius 32.63
rwrist -6.5456
rhand -11.8859 15.5773
rfingers 7.12502
rthumb 14.1669 -13.9196
lclavicle -7.37118e-014 7.10655e-015
lhumerus -36.5326 -1.27355 82.5633
lradius 30.4116
lwrist 10.5069
lhand -4.84065 27.754
lfingers 7.12502
lthumb 20.9465 56.643
rfemur -13.1419 8.47068 16.8029
rtibia 26.3121
rfoot -17.3813 -10.3589
rtoes -9.71179
lfemur -14.0578 -11.7006 -20.5763
ltibia 24.2789
lfoot -15.3234 3.21231
ltoes -2.95737
742
root -16.799 17.936 8.89317 178.763 68.4232 173.897
lowerback 4.16382 2.80762 -2.56611
upperback 2.71275 3.72231 -0.800165
thorax 0.34809 1.86577 0.470451
lowerneck -5.92844 0.646982 -3.88682
upperneck 22.4196 2.42117 -0.630108
head 7.85771 1.08561 0.695723
rclavicle -4.08875e-014 -8.24956e-015
rhumerus -32.2717 -2.59577 -81.4823
rradius 32.5767
rwrist -6.49263
rhand -11.709 15.6417
rfingers 7.12502
rthumb 14.3374 -13.8433
lclavicle -4.08875e-014 -8.24956e-015
lhumerus -36.329 -1.70099 82.8004
lradius 30.3814
lwrist 10.4737
lhand -5.15285 27.8984
lfingers 7.12502
lthumb 20.6465 56.8203
rfemur -12.9152 8.12928 16.9106
rtibia 26.1252
rfoot -17.382 -10.2506
rtoes -9.61166
lfemur -13.9899 -11.9309 -20.5136
ltibia 24.3541
lfoot -15.4581 3.5148
ltoes -4.1407
743
root -16.7929 17.9378 8.93456 178.856 68.1063 173.979
lowerback 4.24239 2.88338 -2.36961
upperback 2.71955 3.82844 -0.849473
thorax 0.324265 1.92224 0.302563
lowerneck -6.08156 0.495229 -3.74136
upperneck 22.4805 2.17545 -0.535143
head 7.90879 0.986586 0.684028
rclavicle 1.26353e-014 -1.30204e-014
rhumerus -32.1399 -2.79896 -81.509
rradius 32.5546
rwrist -6.58788
rhand -11.5474 15.8034
rfingers 7.12502
rthumb 14.4931 -13.6704
lclavicle 1.26353e-014 -1.30204e-014
lhumerus -36.1597 -2.28753 83.0367
lradius 30.525
lwrist 10.5714
lhand -5.07325 28.1031
lfingers 7.12502
lthumb 20.723 57.0166
rfemur -12.8655 7.88829 17.0813
rtibia 26.0181
rfoot -17.3124 -10.3605
rtoes -9.47033
lfemur -14.0924 -12.1389 -20.3391
ltibia 24.341
lfoot -15.3947 3.56175
ltoes -5.61774
744
root -16.7916 17.9335 8.9795 179.156 67.8015 174.257
lowerback 4.39008 2.916 -2.21259
upperback 2.67688 3.87041 -0.801946
thorax 0.20395 1.94545 0.252398
lowerneck -6.21774 0.358788 -3.67818
upperneck 22.5744 1.97344 -0.473543
head 7.96754 0.899764 0.678812
rclavicle 1.92076e-014 -6.65929e-015
rhumerus -32.0596 -2.78614 -81.5014
rradius 32.5689
rwrist -6.69518
rhand -11.4355 15.9793
rfingers 7.12502
rthumb 14.6009 -13.4868
lclavicle 1.92076e-014 -6.65929e-015
lhumerus -36.1061 -2.82444 83.3977
lradius 30.7819
lwrist 10.7815
lhand -5.14911 28.3693
lfingers 7.12502
lthumb 20.6501 57.2907
rfemur -12.8809 7.73663 17.3345
rtibia 25.9878
rfoot -17.2552 -10.5337
rtoes -9.29626
lfemur -14.2411 -12.1916 -20.0617
ltibia 24.2463
lfoot -15.1317 3.19565
ltoes -6.75863
745
root -16.78 17.9287 9.01617 179.283 67.4944 174.462
lowerback 4.44193 2.84699 -2.10196
upperback 2.69363 3.78099 -0.687441
thorax 0.193271 1.90098 0.309693
lowerneck -6.23939 0.331775 -3.71545
upperneck 22.5848 1.94918 -0.498939
head 7.9757 0.88307 0.674987
rclavicle 6.60959e-015 -8.05078e-015
rhumerus -31.9513 -2.39413 -81.5188
rradius 32.6041
rwrist -6.96456
rhand -11.2012 16.086
rfingers 7.12502
rthumb 14.8266 -13.3635
lclavicle 6.60959e-015 -8.05078e-015
lhumerus -36.0927 -2.70644 83.6073
lradius 30.888
lwrist 10.5044
lhand -5.49266 28.6457
lfingers 7.12502
lthumb 20.32 57.6027
rfemur -12.7338 7.45887 17.5609
rtibia 25.9747
rfoot -17.323 -10.6111
rtoes -9.57529
lfemur -14.1723 -12.2853 -19.8799
ltibia 24.1408
lfoot -15.0158 2.97725
ltoes -7.16794
746
root -16.7664 17.9258 9.05285 179.281 67.0565 174.522
lowerback 4.47059 2.72552 -2.04636
upperback 2.71198 3.62089 -0.582533
thorax 0.19599 1.82068 0.392338
lowerneck -6.21875 0.315278 -3.81063
upperneck 22.5738 1.93239 -0.465523
head 7.96775 0.871148 0.700463
rclavicle -5.43179e-014 -1.5704e-014
rhumerus -31.8758 -1.9987 -81.545
rradius 32.6865
rwrist -7.06041
rhand -11.1729 16.0702
rfingers 7.12502
rthumb 14.8539 -13.3773
lclavicle -5.43179e-014 -1.5704e-014
lhumerus -36.1022 -2.53337 83.7526
lradius 31.0957
lwrist 10.0552
lhand -5.25146 29.172
lfingers 7.12502
lthumb 20.5518 58.1042
rfemur -12.5792 7.10877 17.7137
rtibia 25.9427
rfoot -17.4732 -10.59
rtoes -9.03511
lfemur -14.0971 -12.5883 -19.7565
ltibia 24.0459
lfoot -14.9667 2.90792
ltoes -6.74783
747
root -16.7574 17.9241 9.0947 179.42 66.5732 174.69
lowerback 4.55921 2.63198 -1.95954
upperback 2.69512 3.49642 -0.49683
thorax 0.131678 1.75916 0.432275
lowerneck -6.22595 0.24968 -3.87293
upperneck 22.5676 1.83127 -0.38142
head 7.96727 0.825801 0.730193
rclavicle 1.2275e-014 2.8625e-014
rhumerus -31.7815 -1.83386 -81.5557
rradius 32.6819
rwrist -7.05278
rhand -11.2545 16.0322
rfingers 7.12502
rthumb 14.7753 -13.4211
lclavicle 1.2275e-014 2.8625e-014
lhumerus -36.1176 -2.76013 83.9929
lradius 31.4767
lwrist 9.92546
lhand -4.6714 29.8131
lfingers 7.12502
lthumb 21.1091 58.6841
rfemur -12.4877 6.7417 17.9183
rtibia 25.8947
rfoot -17.4299 -10.7358
rtoes -9.70178
lfemur -14.1074 -12.8629 -19.5471
ltibia 23.9418
lfoot -14.8897 2.6225
ltoes -5.90798
748
root -16.7472 17.9251 9.13543 179.555 66.0706 174.848
lowerback 4.64041 2.56222 -1.86798
upperback 2.66668 3.40386 -0.423581
thorax 0.0599418 1.7137 0.455657
lowerneck -6.22888 0.155665 -3.9004
upperneck 22.5846 1.68563 -0.285851
head 7.97469 0.763704 0.754332
rclavicle -8.29429e-014 2.78299e-015
rhumerus -31.7202 -1.82713 -81.5267
rradius 32.6714
rwrist -6.98015
rhand -11.2246 16.1139
rfingers 7.12502
rthumb 14.8041 -13.3374
lclavicle -8.29429e-014 2.78299e-015
lhumerus -36.158 -3.29358 84.3363
lradius 31.8218
lwrist 10.2187
lhand -4.5084 29.8523
lfingers 7.12502
lthumb 21.2657 58.7057
rfemur -12.3784 6.48234 18.13
rtibia 25.8379
rfoot -17.284 -11.1198
rtoes -11.269
lfemur -14.1604 -13.0971 -19.3413
ltibia 23.849
lfoot -14.7367 2.3395
ltoes -5.36618
749
root -16.7346 17.9263 9.17731 179.586 65.63 174.909
lowerback 4.7048 2.51485 -1.8105
upperback 2.66024 3.34157 -0.369738
thorax 0.0188089 1.68314 0.47838
lowerneck -6.24396 0.0612036 -3.91853
upperneck 22.6012 1.53384 -0.172993
head 7.98428 0.700669 0.782119
rclavicle -3.97569e-016 -1.5704e-014
rhumerus -31.671 -1.89215 -81.5116
rradius 32.7232
rwrist -6.92264
rhand -11.3449 16.113
rfingers 7.12502
rthumb 14.6882 -13.3467
lclavicle -3.97569e-016 -1.5704e-014
lhumerus -36.2029 -3.98902 84.7448
lradius 32.1793
lwrist 10.7644
lhand -4.57899 29.4628
lfingers 7.12502
lthumb 21.1979 58.3237
rfemur -12.2346 6.42174 18.3023
rtibia 25.7298
rfoot -17.476 -11.2077
rtoes -9.18567
lfemur -14.2312 -13.1749 -19.1733
ltibia 23.8179
lfoot -14.5825 2.07377
ltoes -5.68456
750
root -16.7228 17.9269 9.21911 179.687 65.2376 175.06
lowerback 4.7918 2.47344 -1.67382
upperback 2.66125 3.2905 -0.320318
thorax -0.0229227 1.65911 0.451219
lowerneck -6.27797 -0.0318179 -3.94209
upperneck 22.5946 1.38366 -0.0663571
head 7.9898 0.63662 0.80867
rclavicle 5.91384e-015 -3.18055e-015
rhumerus -31.6418 -1.83481 -81.5346
rradius 32.8194
rwrist -7.02751
rhand -11.4784 16.0335
rfingers 7.12502
rthumb 14.5596 -13.4356
lclavicle 5.91384e-015 -3.18055e-015
lhumerus -36.2199 -4.62945 85.1122
lradius 32.585
lwrist 11.1226
lhand -4.41552 29.1161
lfingers 7.12502
lthumb 21.3549 57.9594
rfemur -12.0862 6.2089 18.5227
rtibia 25.5965
rfoot -17.5657 -11.2307
rtoes -7.56632
lfemur -14.2741 -13.2731 -18.9741
ltibia 23.8147
lfoot -14.4135 1.99778
ltoes -6.32761
